<svg version="1.0" xmlns="http://www.w3.org/2000/svg" width="800.000000" height="800.000000" viewBox="0 0 800.000000 800.000000" preserveAspectRatio="xMidYMid meet">
  <metadata>
    <rdf:RDF xmlns:rdf="http://www.w3.org/1999/02/22-rdf-syntax-ns#" xmlns:rdfs="http://www.w3.org/2000/01/rdf-schema#" xmlns:dc="http://purl.org/dc/elements/1.1/">
      <rdf:Description dc:format="image/svg+xml" dc:Label="1" dc:ContentProducer="001191330110MACRLGPT8B00000" dc:ProduceID="329196211" dc:ReservedCode1="xtZGItVnCzH1giuo8i3jOXGU21qGvgMmeihewi0hB4c=" dc:ContentPropagator="001191330110MACRLGPT8B00000" dc:PropagateID="329196211" dc:ReservedCode2="xtZGItVnCzH1giuo8i3jOXGU21qGvgMmeihewi0hB4c="/>
    </rdf:RDF>
  </metadata>
  <g transform="translate(68.337123,744.512874) scale(0.084516,-0.084516)" fill="#000000" stroke="none">
    <path d="M3727 6109 c-393 -23 -792 -111 -1110 -243 -798 -331 -1256 -1008 -1166 -1726 17 -137 35 -213 105 -430 145 -448 294 -716 539 -969 354 -366 823 -589 1434 -683 187 -29 575 -31 766 -5 939 131 1602 619 1921 1414 67 167 136 400 165 560 30 165 37 436 15 570 -69 408 -329 768 -756 1045 -114 75 -323 178 -358 178 -35 0 -62 -27 -62 -62 0 -33 3 -35 145 -107 284 -142 515 -330 685 -556 159 -211 241 -460 239 -730 -1 -197 4 -187 -150 -338 -121 -118 -139 -141 -176 -217 -23 -47 -52 -116 -64 -155 -31 -99 -55 -144 -82 -149 -12 -3 -53 -4 -92 -3 -119 3 -193 -49 -248 -173 -13 -30 -30 -60 -38 -66 -8 -6 -48 -14 -89 -16 -110 -7 -151 -33 -289 -181 -74 -79 -134 -80 -239 -3 -69 51 -112 66 -182 66 -78 0 -162 -38 -247 -112 -104 -90 -224 -138 -346 -138 -63 0 -168 26 -307 75 -134 48 -201 54 -308 26 -103 -26 -126 -19 -196 64 -56 65 -128 105 -190 105 -21 0 -66 -7 -100 -16 -38 -10 -89 -15 -136 -12 -63 3 -87 9 -150 41 -87 45 -129 78 -261 203 -76 73 -107 95 -150 109 -65 22 -125 22 -208 0 -68 -17 -86 -13 -120 31 -11 14 -25 42 -32 62 -34 108 -50 131 -113 169 -91 54 -113 79 -145 162 -45 119 -64 244 -64 416 0 284 77 532 237 765 199 288 488 514 849 664 623 259 1419 317 2065 150 149 -39 176 -37 188 11 13 51 -6 68 -107 97 -200 57 -423 91 -709 108 -179 11 -175 11 -363 -1z m2478 -2288 c-101 -355 -227 -614 -411 -845 -287 -360 -686 -605 -1212 -741 -52 -14 -172 -36 -266 -50 -278 -41 -638 -33 -909 20 -668 129 -1194 472 -1488 970 -82 140 -218 439 -205 452 9 9 36 -31 55 -82 44 -116 85 -172 144 -194 40 -16 115 -13 176 5 93 27 135 8 286 -136 205 -194 379 -261 568 -216 125 29 157 20 222 -65 71 -93 162 -120 281 -84 87 26 141 20 307 -37 142 -49 160 -52 268 -56 181 -6 290 29 422 136 153 123 198 130 320 53 172 -108 265 -96 412 55 97 99 124 114 208 114 98 0 142 27 187 117 61 122 91 143 202 142 138 -2 180 37 243 231 40 122 86 206 155 279 34 35 63 61 65 59 3 -2 -11 -60 -30 -127z"/>
    <path d="M3560 5921 c-78 -25 -124 -51 -215 -120 -139 -106 -233 -130 -440 -111 -253 23 -383 0 -484 -87 -48 -40 -59 -60 -100 -173 -17 -45 -44 -104 -61 -130 -48 -75 -146 -160 -265 -230 -364 -216 -407 -477 -157 -975 115 -231 220 -330 398 -375 91 -24 176 -25 339 -5 217 26 321 14 455 -51 60 -30 92 -55 160 -127 210 -223 253 -261 331 -300 102 -50 200 -70 309 -64 157 10 273 66 468 226 203 167 343 193 652 121 221 -52 366 -34 471 58 49 43 85 113 114 228 43 164 85 280 114 321 16 21 69 82 119 135 130 141 219 282 256 407 22 77 21 203 -4 283 -21 67 -74 157 -132 220 -85 93 -212 170 -408 248 -180 71 -273 133 -410 271 -156 157 -244 179 -640 155 -173 -10 -252 -2 -497 54 -194 45 -284 50 -373 21z m370 -146 c74 -18 173 -39 220 -45 91 -13 292 -14 430 -2 114 9 229 -2 282 -29 24 -12 88 -65 143 -118 148 -142 249 -210 405 -268 282 -106 431 -229 490 -402 40 -119 18 -228 -77 -379 -186 -294 -515 -526 -953 -670 -706 -233 -1471 -193 -2070 108 -275 138 -439 301 -506 500 -27 79 -25 223 4 315 75 244 319 456 694 605 625 248 1374 233 1970 -38 171 -77 366 -240 422 -350 84 -166 42 -335 -124 -503 -211 -213 -572 -382 -972 -454 -188 -34 -489 -36 -683 -5 -404 65 -741 250 -851 469 -26 50 -29 66 -29 151 0 85 3 102 29 155 35 71 134 174 221 230 419 268 1127 323 1625 126 232 -92 370 -233 370 -378 0 -109 -74 -232 -198 -324 -73 -54 -325 -183 -345 -176 -7 3 -4 8 8 12 110 39 230 127 275 202 46 76 54 168 20 238 -63 130 -252 228 -530 276 -110 19 -150 21 -335 16 -173 -5 -230 -10 -320 -30 -201 -45 -341 -112 -419 -198 -117 -130 -91 -276 74 -411 88 -72 292 -152 452 -178 61 -9 88 -20 52 -20 -29 0 -44 -20 -44 -57 0 -21 6 -36 18 -42 31 -16 242 -23 357 -11 396 40 701 163 901 364 127 127 181 265 155 394 -61 310 -440 518 -1022 562 -264 21 -549 -15 -818 -101 -479 -154 -729 -463 -636 -784 88 -306 535 -564 1080 -625 129 -14 382 -12 505 4 350 47 670 162 935 334 272 177 415 385 415 603 0 291 -290 558 -777 718 -403 133 -873 165 -1313 90 -63 -11 -124 -22 -135 -25 -11 -3 2 9 29 27 27 17 75 53 107 79 117 98 215 107 469 45z m-956 -212 l119 -6 -109 -39 c-281 -100 -535 -268 -667 -440 -178 -232 -216 -523 -99 -754 87 -171 222 -297 483 -449 l34 -19 -75 -7 c-41 -4 -120 -12 -175 -18 -179 -19 -284 9 -380 100 -98 93 -184 246 -253 454 -50 149 -59 222 -38 304 29 114 73 162 251 275 66 42 146 99 177 126 75 66 147 176 193 294 42 109 75 148 144 170 87 28 59 27 395 9z m1152 -658 c209 -28 355 -80 439 -157 84 -77 84 -123 2 -213 -43 -48 -47 -49 -69 -36 -129 81 -261 125 -439 148 -114 14 -153 15 -259 5 -172 -15 -303 -50 -424 -112 l-99 -50 -43 46 c-69 74 -71 133 -7 198 138 139 553 218 899 171z m-31 -390 c131 -21 300 -85 279 -105 -15 -13 -135 -49 -219 -66 -139 -26 -434 -18 -570 17 -79 20 -165 51 -165 59 0 11 113 57 188 75 147 37 337 45 487 20z m305 -235 c-8 -5 -24 -9 -35 -9 -16 1 -16 2 5 9 35 11 48 11 30 0z m-485 -80 c8 -12 -71 -12 -100 0 -14 6 -4 9 37 9 31 1 60 -3 63 -9z m118 3 c-13 -2 -33 -2 -45 0 -13 2 -3 4 22 4 25 0 35 -2 23 -4z m1406 -280 c-65 -229 -87 -266 -180 -296 -68 -22 -120 -21 -232 4 -50 12 -139 29 -197 38 l-105 17 120 38 c206 65 484 185 577 250 12 9 26 16 29 16 4 0 -2 -30 -12 -67z m-2079 -278 c187 -39 270 -47 535 -52 192 -3 301 0 378 10 59 7 107 12 107 11 0 0 -25 -18 -56 -38 -31 -21 -92 -67 -137 -104 -178 -145 -256 -177 -417 -170 -85 4 -116 10 -163 31 -69 31 -141 86 -200 154 -135 154 -160 185 -141 180 10 -4 53 -13 94 -22z"/>
  </g>
</svg>